####
#
#	OBJ File Generated by LightWave3D
#	LightWave3D OBJ Export v2.3
#
####
o Frame_v001.obj
mtllib Frame_v001.mtl
g default
v -0.5 -0.5 -0
v -0.5 0.5 -0
v 0.5 0.5 -0
v 0.5 -0.5 -0
v -0.45 -0.45 -0
v 0.45 -0.45 -0
v 0.45 0.45 -0
v -0.45 0.45 -0
v -0.495 -0.487929 -0
v -0.455 -0.447929 -0
v -0.455 0.447929 -0
v -0.495 0.487929 -0
v -0.487929 -0.495 -0
v 0.487929 -0.495 -0
v 0.447929 -0.455 -0
v -0.447929 -0.455 -0
v 0.495 -0.487929 -0
v 0.495 0.487929 -0
v 0.455 0.447929 -0
v 0.455 -0.447929 -0
v -0.447929 0.455 -0
v 0.447929 0.455 -0
v 0.487929 0.495 -0
v -0.487929 0.495 -0
v -0.495 -0.487929 -0
v -0.455 -0.447929 -0
v -0.455 0.447929 -0
v -0.495 0.487929 -0
v -0.487929 -0.495 -0
v 0.487929 -0.495 -0
v 0.447929 -0.455 -0
v -0.447929 -0.455 -0
v 0.495 -0.487929 -0
v 0.495 0.487929 -0
v 0.455 0.447929 -0
v 0.455 -0.447929 -0
v -0.447929 0.455 -0
v 0.447929 0.455 -0
v 0.487929 0.495 -0
v -0.487929 0.495 -0
v -0.5 -0.5 -0
v -0.5 0.5 -0
v 0.5 0.5 -0
v 0.5 -0.5 -0
v -0.45 -0.45 -0
v 0.45 -0.45 -0
v 0.45 0.45 -0
v -0.45 0.45 -0
v -0.495 -0.487929 -0
v -0.455 -0.447929 -0
v -0.455 0.447929 -0
v -0.495 0.487929 -0
v -0.487929 -0.495 -0
v 0.487929 -0.495 -0
v 0.447929 -0.455 -0
v -0.447929 -0.455 -0
v 0.495 -0.487929 -0
v 0.495 0.487929 -0
v 0.455 0.447929 -0
v 0.455 -0.447929 -0
v -0.447929 0.455 -0
v 0.447929 0.455 -0
v 0.487929 0.495 -0
v -0.487929 0.495 -0
v -0.495 -0.487929 -0
v -0.455 -0.447929 -0
v -0.455 0.447929 -0
v -0.495 0.487929 -0
v -0.487929 -0.495 -0
v 0.487929 -0.495 -0
v 0.447929 -0.455 -0
v -0.447929 -0.455 -0
v 0.495 -0.487929 -0
v 0.495 0.487929 -0
v 0.455 0.447929 -0
v 0.455 -0.447929 -0
v -0.447929 0.455 -0
v 0.447929 0.455 -0
v 0.487929 0.495 -0
v -0.487929 0.495 -0
vn 0 0 -1
vn 0 0 -1
vn 0 0 -1
vn 0 0 -1
vn 0 0 -1
vn 0 0 -1
vn 0 0 -1
vn 0 0 -1
vn 0 0 -1
vn 0 0 -1
vn 0 0 -1
vn 0 0 -1
vn 0 0 -1
vn 0 0 -1
vn 0 0 -1
vn 0 0 -1
vn 0 0 -1
vn 0 0 -1
vn 0 0 -1
vn 0 0 -1
vn 0 0 -1
vn 0 0 -1
vn 0 0 -1
vn 0 0 -1
vn 0 0 -1
vn 0 0 -1
vn 0 0 -1
vn 0 0 -1
vn 0 0 -1
vn 0 0 -1
vn 0 0 -1
vn 0 0 -1
vn 0 0 -1
vn 0 0 -1
vn 0 0 -1
vn 0 0 -1
vn 0 0 -1
vn 0 0 -1
vn 0 0 -1
vn 0 0 -1
vn 0 0 -1
vn 0 0 -1
vn 0 0 -1
vn 0 0 -1
vn 0 0 -1
vn 0 0 -1
vn 0 0 -1
vn 0 0 -1
vn 0 0 -1
vn 0 0 -1
vn 0 0 -1
vn 0 0 -1
vn 0 0 -1
vn 0 0 -1
vn 0 0 -1
vn 0 0 -1
vn 0 0 -1
vn 0 0 -1
vn 0 0 -1
vn 0 0 -1
vn 0 0 -1
vn 0 0 -1
vn 0 0 -1
vn 0 0 -1
vn 0 0 -1
vn 0 0 -1
vn 0 0 -1
vn 0 0 -1
vn 0 0 -1
vn 0 0 -1
vn 0 0 -1
vn 0 0 -1
vn 0 0 -1
vn 0 0 -1
vn 0 0 -1
vn 0 0 -1
vn 0 0 -1
vn 0 0 -1
vn 0 0 -1
vn 0 0 -1
vn 0 0 -1
vn 0 0 -1
vn 0 0 -1
vn 0 0 -1
vn 0 0 -1
vn 0 0 -1
vn 0 0 -1
vn 0 0 -1
vn 0 0 -1
vn 0 0 -1
vn 0 0 -1
vn 0 0 -1
vn 0 0 -1
vn 0 0 -1
vn 0 0 -1
vn 0 0 -1
vn 0 0 -1
vn 0 0 -1
vn 0 0 -1
vn 0 0 -1
vn 0 0 -1
vn 0 0 -1
vn 0 0 -1
vn 0 0 -1
vn 0 0 -1
vn 0 0 -1
vn 0 0 -1
vn 0 0 -1
vn 0 0 -1
vn 0 0 -1
vn 0 0 -1
vn 0 0 -1
vn 0 0 -1
vn 0 0 -1
vn 0 0 -1
vn 0 0 -1
vn 0 0 -1
vn 0 0 -1
vn 0 0 -1
vn 0 0 -1
vn 0 0 1
vn 0 0 1
vn 0 0 1
vn 0 0 1
vn 0 0 1
vn 0 0 1
vn 0 0 1
vn 0 0 1
vn 0 0 1
vn 0 0 1
vn 0 0 1
vn 0 0 1
vn 0 0 1
vn 0 0 1
vn 0 0 1
vn 0 0 1
vn 0 0 1
vn 0 0 1
vn 0 0 1
vn 0 0 1
vn 0 0 1
vn 0 0 1
vn 0 0 1
vn 0 0 1
vn 0 0 1
vn 0 0 1
vn 0 0 1
vn 0 0 1
vn 0 0 1
vn 0 0 1
vn 0 0 1
vn 0 0 1
vn 0 0 1
vn 0 0 1
vn 0 0 1
vn 0 0 1
vn 0 0 1
vn 0 0 1
vn 0 0 1
vn 0 0 1
vn 0 0 1
vn 0 0 1
vn 0 0 1
vn 0 0 1
vn 0 0 1
vn 0 0 1
vn 0 0 1
vn 0 0 1
vn 0 0 1
vn 0 0 1
vn 0 0 1
vn 0 0 1
vn 0 0 1
vn 0 0 1
vn 0 0 1
vn 0 0 1
vn 0 0 1
vn 0 0 1
vn 0 0 1
vn 0 0 1
vn 0 0 1
vn 0 0 1
vn 0 0 1
vn 0 0 1
vn 0 0 1
vn 0 0 1
vn 0 0 1
vn 0 0 1
vn 0 0 1
vn 0 0 1
vn 0 0 1
vn 0 0 1
vn 0 0 1
vn 0 0 1
vn 0 0 1
vn 0 0 1
vn 0 0 1
vn 0 0 1
vn 0 0 1
vn 0 0 1
vn 0 0 1
vn 0 0 1
vn 0 0 1
vn 0 0 1
vn 0 0 1
vn 0 0 1
vn 0 0 1
vn 0 0 1
vn 0 0 1
vn 0 0 1
vn 0 0 1
vn 0 0 1
vn 0 0 1
vn 0 0 1
vn 0 0 1
vn 0 0 1
vn 0 0 1
vn 0 0 1
vn 0 0 1
vn 0 0 1
vn 0 0 1
vn 0 0 1
vn 0 0 1
vn 0 0 1
vn 0 0 1
vn 0 0 1
vn 0 0 1
vn 0 0 1
vn 0 0 1
vn 0 0 1
vn 0 0 1
vn 0 0 1
vn 0 0 1
vn 0 0 1
vn 0 0 1
vn 0 0 1
vn 0 0 1
vn 0 0 1
vn 0 0 1
vn 0 0 1
g Base
usemtl Base
s off
f 2//1 9//2 1//3
f 2//4 12//5 9//6
f 9//7 5//8 1//9
f 10//10 5//11 9//12
f 10//13 8//14 5//15
f 11//16 8//17 10//18
f 12//19 8//20 11//21
f 12//22 2//23 8//24
f 5//25 13//26 1//27
f 5//28 16//29 13//30
f 1//31 13//32 4//33
f 13//34 14//35 4//36
f 14//37 6//38 4//39
f 15//40 6//41 14//42
f 16//43 5//44 15//45
f 5//46 6//47 15//48
f 6//49 17//50 4//51
f 6//52 20//53 17//54
f 17//55 3//56 4//57
f 18//58 3//59 17//60
f 7//61 18//62 19//63
f 3//64 18//65 7//66
f 7//67 20//68 6//69
f 7//70 19//71 20//72
f 2//73 24//74 8//75
f 24//76 21//77 8//78
f 8//79 21//80 7//81
f 21//82 22//83 7//84
f 22//85 23//86 7//87
f 23//88 3//89 7//90
f 24//91 2//92 23//93
f 2//94 3//95 23//96
g Fill
usemtl Fill
s off
f 28//97 26//98 25//99
f 28//100 27//101 26//102
f 29//103 32//104 30//105
f 32//106 31//107 30//108
f 36//109 34//110 33//111
f 35//112 34//113 36//114
f 37//115 40//116 38//117
f 40//118 39//119 38//120
g Base
usemtl Base
s off
f 49//121 42//122 41//123
f 52//124 42//125 49//126
f 45//127 49//128 41//129
f 45//130 50//131 49//132
f 48//133 50//134 45//135
f 48//136 51//137 50//138
f 48//139 52//140 51//141
f 42//142 52//143 48//144
f 53//145 45//146 41//147
f 56//148 45//149 53//150
f 53//151 41//152 44//153
f 54//154 53//155 44//156
f 46//157 54//158 44//159
f 46//160 55//161 54//162
f 45//163 56//164 55//165
f 46//166 45//167 55//168
f 57//169 46//170 44//171
f 60//172 46//173 57//174
f 43//175 57//176 44//177
f 43//178 58//179 57//180
f 58//181 47//182 59//183
f 58//184 43//185 47//186
f 60//187 47//188 46//189
f 59//190 47//191 60//192
f 64//193 42//194 48//195
f 61//196 64//197 48//198
f 61//199 48//200 47//201
f 62//202 61//203 47//204
f 63//205 62//206 47//207
f 43//208 63//209 47//210
f 42//211 64//212 63//213
f 43//214 42//215 63//216
g Fill
usemtl Fill
s off
f 66//217 68//218 65//219
f 67//220 68//221 66//222
f 72//223 69//224 70//225
f 71//226 72//227 70//228
f 74//229 76//230 73//231
f 74//232 75//233 76//234
f 80//235 77//236 78//237
f 79//238 80//239 78//240
