####
#
#	OBJ File Generated by LightWave3D
#	LightWave3D OBJ Export v2.3
#
####
o GunBarrel.obj
mtllib GunBarrel.mtl
g default
v -0.1 -0.5 -0
v -0.1 0.5 -0
v 0.1 -0.5 -0
v 0.1 0.5 -0
v -0.075 -0.475 -0
v -0.075 0.475 -0
v 0.075 0.475 -0
v 0.075 -0.475 -0
v -0.075 -0.475 -0
v -0.075 0.475 -0
v 0.075 0.475 -0
v 0.075 -0.475 -0
v -0.1 0.5 -0
v 0.1 0.5 -0
v -0.075 0.525 -0
v 0.075 0.525 -0
vn 0 0 1
vn 0 0 1
vn 0 0 1
vn 0 0 1
vn 0 0 1
vn 0 0 1
vn 0 0 1
vn 0 0 1
vn 0 0 1
vn 0 0 1
vn 0 0 1
vn 0 0 1
vn 0 0 1
vn 0 0 1
vn 0 0 1
vn 0 0 1
vn 0 0 1
vn 0 0 1
vn 0 0 1
vn 0 0 1
vn 0 0 1
vn 0 0 1
vn 0 0 1
vn 0 0 1
vn 0 0 1
vn 0 0 1
vn 0 0 1
vn 0 0 1
vn 0 0 1
vn 0 0 1
vn 0 0 1
vn 0 0 1
vn 0 0 1
vn 0 0 1
vn 0 0 1
vn 0 0 1
g Barrel_Frame
usemtl Barrel_Frame
s off
f 8//1 1//2 3//3
f 8//4 5//5 1//6
f 5//7 2//8 1//9
f 6//10 2//11 5//12
f 4//13 6//14 7//15
f 4//16 2//17 6//18
f 4//19 8//20 3//21
f 4//22 7//23 8//24
g Barrel_Fill
usemtl Barrel_Fill
s off
f 10//25 9//26 12//27
f 11//28 10//29 12//30
g Barrel_Top
usemtl Barrel_Top
s off
f 16//31 13//32 14//33
f 16//34 15//35 13//36
